<?xml version="1.0" encoding="utf-8"?>
<!-- Generator: Adobe Illustrator 18.1.1, SVG Export Plug-In . SVG Version: 6.00 Build 0)  -->
<svg version="1.1" id="Layer_1" xmlns="http://www.w3.org/2000/svg" xmlns:xlink="http://www.w3.org/1999/xlink" x="0px" y="0px"
	 width="382px" height="330px" viewBox="0 0 382 330" enable-background="new 0 0 382 330" xml:space="preserve">
<path fill="#FF0000" d="M192.1-0.4c-8.1,0-16.1,5.3-22.2,15.8L11.4,289.3c-12.2,21.1-2.3,38.4,22.1,38.4h317.3
	c24.4,0,34.4-17.3,22.1-38.4L214.4,15.4C208.2,4.9,200.2-0.4,192.1-0.4L192.1-0.4z"/>
<polyline fill="#FFFFFF" points="192.1,42 338.7,295.2 45.6,295.2 192.1,42 "/>
<path d="M174.4,192.2l-1.1,5.9c0,0,0.4,14.3,2.7,22.7s0.9,26.7,0,32.6s-1,15.2-3.4,15.2l15.3,4.3c0,0,7.1,0.2,7.1-1.6
	s-3.5-3.1-7.8-5.6c1.3-6,2.8-20.4,4-28.3c3.3,7,10.4,34.6,10.4,34.6s11.3,0,16.5,0c5.1,0,2.4-2.2,2.4-2.2l-9.5-3.9
	c0,0-8.4-39.4-9.5-57.1s7.2-28.8,7.2-28.8s3.7-9.1,8.1-2.4c8.4,11.8,19.6,21.3,19.6,21.3s1.8,1.8,4.2,3.8c-0.9,1.7-1,3.5-1,3.8
	l3.4,0c0,0,0-0.8,0.3-1.7c1.7,1.2,3.5,2.3,5.1,2.9c-0.1,0.5-0.2,1-0.3,1.5c-0.2,1.2-0.5,2.6-0.7,4l-9.8,58.8l3.4,0.6l9.8-58.9
	c0.2-1.3,0.4-2.6,0.7-3.8c0.1-0.7,0.3-1.3,0.4-2c0.1,0,0.2-0.1,0.2-0.1c4.5-2.4,2.1-5.1,0.6-6.5c-9.2-6.7-18.9-17.6-25.5-29.4
	c-6.7-11.8-6.7-21.8-6.7-21.8c6.2,1.7,12.6-2,14.3-8.2c1.7-6.2-2-12.6-8.2-14.3c-6.2-1.7-12.6,2-14.3,8.2c-0.6,2.2-0.5,4.4,0.1,6.4
	c0,0-10.5,1.7-18.3,11.4c-16,15.7-18.3,33.2-18.3,33.2L174.4,192.2z"/>
<path d="M157,270.8l-9.4-28l-6-0.2l-5.4,21l8.9,3.7c0,0,4.1,2.7-1.8,2.7c-6,0-15.3,0-15.3,0l2-27h-8.8c0,0-2.1-18.1,7.8-47.5
	s30.5-46.8,30.5-46.8s-3.3-17.9,12.3-17.8c15.6,0.1,11.3,16.2,11.3,16.2s-3.4,8-10.6,8.2c-3.5,6.1-8.2,13.9-5.2,21
	c3,7.1,18.6,9.6,18.6,9.6l-0.8,10.2c0,0-11.5-0.5-13.1-0.8c-4.5-1.4-8.8-6.1-8.8-6.1c-2.9-2.7-5.8-0.6-6.7,15.2s5,37.7,5,37.7
	l-3,0.1l4,20.3c0,0,7.9,3.5,10.4,3.5l3.7,5.4L157,270.8z"/>
</svg>
