<?xml version="1.0" encoding="utf-8"?>
<!-- Generator: Adobe Illustrator 18.1.1, SVG Export Plug-In . SVG Version: 6.00 Build 0)  -->
<svg version="1.1" id="Layer_1" xmlns="http://www.w3.org/2000/svg" xmlns:xlink="http://www.w3.org/1999/xlink" x="0px" y="0px"
	 width="479.6px" height="136.1px" viewBox="-399 412.9 479.6 136.1" enable-background="new -399 412.9 479.6 136.1"
	 xml:space="preserve">
<g>
	<path fill="#FFFFFF" d="M-391.2,418c-2,0.2-5.8,1-7.8,1.7v72.6c0-1.3,0.4-3.7,1-8.8L-391.2,418z"/>
	<path fill="#FFFFFF" d="M-378.7,449.6c12.5-0.7,21.8-8.7,21.8-19.6c0-11.6-10.9-13.7-18.2-13.7L-378.7,449.6z"/>
	<path fill="#FFFFFF" d="M-330.3,469c0-8.7,1.7-17.3,5.3-24.9v-31.2h-22.5c5.1,3,7.8,7.7,7.8,13.3c0,9.3-6,18-17.6,25.5l21,49.9
		l-0.3,2.4l-10.9,1.2c-4.5-9.9-20.1-40.5-25.4-45.9c-1.2-1.2-2.1-1.6-3.8-1.6c-0.9,0-1.8,0-2.6,0.1l-2.8,25.7
		c-0.4,4.7-0.9,7.8-0.9,9.3c0,1.3,0.6,1.5,3.5,1.9l7.1,0.9l-0.6,6.9c-6.6-0.4-12.5-0.7-19.2-0.7c-2.4,0-4.8,0-6.8,0.1v17h74v-30.5
		C-328.5,483.2-330.3,476.7-330.3,469z"/>
	<path fill="#FFFFFF" d="M-253.4,469.2c0-12.7,3-24.3,8.4-33.8v-22.5h-17.7l1.5,28.2l-7.1,1.1c-1.2-4.7-3.8-16-6-20.1
		c-0.9-1.5-1.8-1.9-3.2-1.9c-17.2,0-35.1,19.7-35.1,46c0,18.1,11,28.7,28.1,28.7c2.4,0,4.1-0.4,5.3-1.3c3.1-2.5,6.3-14,7.9-18.7
		l6.6,1.2l-3.5,25.8c-5.4,1.3-12,2.1-17.8,2.1c-14.6,0-25.9-3.3-32.9-9.5v24.4h74v-23.5C-250.6,489.5-253.4,480.8-253.4,469.2z"/>
	<path fill="#FFFFFF" d="M-288.3,412.9H-319V435C-311,423.7-300.5,416.9-288.3,412.9z"/>
	<path fill="#FFFFFF" d="M-235.7,463.3c0,19.8,6.8,30,19.6,30c17.6,0,30.1-18.7,30.1-47c0-18.4-6.6-27.5-19.7-27.5
		C-223.7,418.7-235.7,436.4-235.7,463.3z"/>
	<path fill="#FFFFFF" d="M-177.3,502.5l0.7-6.8l9-1.6c0.8-1.8,1.7-3.7,2.6-5.5v-75.7h-16.1c8.3,6,12.8,15.4,12.8,28.7
		c0,34.8-22.8,62.3-52.5,62.3c-7.4,0-14.2-1.4-18.2-4.2v19.2h74v-17C-169,502-173,502.2-177.3,502.5z"/>
	<path fill="#FFFFFF" d="M-222.2,412.9H-239v14.2C-235,421.2-228.9,416.9-222.2,412.9z"/>
	<path fill="#FFFFFF" d="M-149,456.3c6.9-14,13.8-29.4,18.7-43.4H-159v64.4C-156,470.4-152.4,463.3-149,456.3z"/>
	<polygon fill="#FFFFFF" points="-120.5,455 -126,428.9 -137.7,454.6 	"/>
	<path fill="#FFFFFF" d="M-86,502.5l0.7-6.9h0.2v-82.7h-27.7l14.9,73.6c1.5,6.8,2.2,8,6.6,8.6l3.7,0.6l-0.7,6.8
		c-7.1-0.4-12.8-0.7-19.6-0.7c-6.5,0-12.9,0.3-19.1,0.7l0.6-6.9l6.8-0.6c4.9-0.6,6.3-1.3,6.3-4c0-1.2-0.4-3.5-1-5.9l-4.3-21.2
		c-13.5,0-19.8,0.4-22.8,1.8c-1.3,0.7-2.6,1.8-4,4.7l-5.4,12.1c-3.2,7.1-3.5,8.4-3.5,9.7c0,1.3,1,1.8,5.4,2.2l10.3,1.2l-0.6,6.9
		c-6.9-0.4-12.8-0.7-19.5-0.7c-0.2,0-0.5,0-0.5,0v17.1h74v-16.4C-85.3,502.5-85.6,502.5-86,502.5z"/>
	<g>
		<path fill="#FFFFFF" d="M-18.8,417.4l-7.4-1.2l0.4-3.3h-11.7l-0.3,3.3l-7.5,1c-1.9,0.3-2.5,0.5-3.1,1.1c-0.6,0.7-1,3.3-1.8,10.2
			l-2.2,20.3l21.5-19.4C-26.6,425.5-22.7,421.5-18.8,417.4z"/>
		<path fill="#FFFFFF" d="M-5,418.8c-3,1.7-6,4.6-12.5,10.5l-17,15.6L-5,499.1V418.8z"/>
		<path fill="#FFFFFF" d="M-12.8,506c-5-8.1-11.1-16.8-16.5-24.3c-5.4-7.6-11.9-16.3-15.5-20.6c-1.3-1.8-3.4-4.3-5.1-4.3
			c-1.5,0-2.8,1-3.5,1.9l-2.6,24.9c-0.6,4.7-0.7,7.8-0.7,9.3c0,1.3,0.3,1.5,3.2,1.9l7.2,0.9l-0.7,6.9c-6.5-0.4-13.1-0.7-19.3-0.7
			c-4.2,0-8.7,0.1-12.7,0.4v16.6h74V505L-12.8,506z"/>
		<path fill="#FFFFFF" d="M-77.6,494.7c2.2-0.3,2.7-0.4,3.1-1c0.7-0.7,0.8-2.1,1.7-10.1l5.8-55.1c0.4-4.4,0.6-7.8,0.6-9.1
			c0-1.5-0.6-1.8-3.2-2.1l-7.2-1l0.3-3.3H-79v82L-77.6,494.7z"/>
	</g>
</g>
<g>
	<path fill="#FFFFFF" d="M-236.9,530.1c1.4-0.5,2.9-0.8,4.8-0.8c3.3,0,5,1,5,2.8c0,1.4-0.9,2.8-2.7,3.9l3.3,7.7v0.4l-1.7,0.2
		c-0.7-1.5-3.1-6.3-3.9-7.1c-0.2-0.2-0.3-0.2-0.6-0.2c-0.1,0-0.3,0-0.4,0l-0.4,4c-0.1,0.7-0.1,1.2-0.1,1.4c0,0.2,0.1,0.2,0.5,0.3
		l1.1,0.1l-0.1,1.1c-1-0.1-2-0.1-3-0.1s-1.9,0-2.9,0.1l0.1-1.1l1.1-0.1c0.3,0,0.4-0.1,0.5-0.2s0.1-0.3,0.3-1.6l1.1-10.1
		c-0.4,0-1.1,0.2-1.4,0.3L-236.9,530.1z M-233.2,535.8c1.9-0.1,3.4-1.3,3.4-3c0-1.8-1.7-2.1-2.8-2.1L-233.2,535.8z"/>
	<path fill="#FFFFFF" d="M-220.3,541.7c-1.2,1.5-2.5,2.4-3.5,2.4c-1.1,0-1.9-1.3-1.9-3.5c0-2.2,0.8-4.8,1.8-6.3
		c0.4-0.6,0.9-0.8,1.7-0.8s2,0.2,2.9,0.5c1.3,0.4,1.5,0.8,1.5,1.9C-217.9,537.7-219,540.1-220.3,541.7z M-220.8,535.6
		c-0.4-0.2-1.2-0.3-1.6-0.3c-0.5,0-0.7,0.1-0.8,0.5c-0.2,0.6-0.4,1.6-0.4,2.8c0,1.4,0.3,3,0.8,3c0.3,0,0.6-0.2,1-0.9
		c0.7-1.1,1.3-2.8,1.3-4.2C-220.4,536-220.5,535.8-220.8,535.6z"/>
	<path fill="#FFFFFF" d="M-211.7,541.7c-1.2,1.5-2.5,2.4-3.5,2.4c-1.1,0-1.9-1.3-1.9-3.5c0-2.2,0.8-4.8,1.8-6.3
		c0.4-0.6,0.9-0.8,1.7-0.8s2,0.2,2.9,0.5c1.3,0.4,1.5,0.8,1.5,1.9C-209.3,537.7-210.4,540.1-211.7,541.7z M-212.2,535.6
		c-0.4-0.2-1.2-0.3-1.6-0.3c-0.5,0-0.7,0.1-0.8,0.5c-0.2,0.6-0.4,1.6-0.4,2.8c0,1.4,0.3,3,0.8,3c0.3,0,0.6-0.2,1-0.9
		c0.7-1.1,1.3-2.8,1.3-4.2C-211.7,536-211.8,535.8-212.2,535.6z"/>
	<path fill="#FFFFFF" d="M-205.5,538.2h0.2c1-2.1,2.6-4.8,4.2-4.8c0.7,0,1,0.4,1,1.1c0,0.3,0,0.8-0.1,1.2l-0.4,2.5h0.2
		c1.6-3.3,3-4.8,4.2-4.8c0.7,0,1,0.4,1,1.2c0,0.4,0,0.9-0.1,1.3l-0.6,5.8c-0.1,0.5-0.1,0.7-0.1,0.8c0,0.2,0.1,0.3,0.6,0.4l0.8,0.1
		v0.8c-0.9,0-2.3,0.1-3.3,0.2l-0.5-0.5l0.7-6.4c0-0.2,0-0.5,0-0.7c0-0.2,0-0.3-0.2-0.3c-0.6,0-1.6,2.3-2.1,3.6
		c-0.5,1.2-0.9,2.6-1.1,3.6c-0.1,0.6-0.1,0.6-0.6,0.6h-1.3l-0.3-0.3l0.7-6.4c0-0.3,0-0.5,0-0.7s0-0.3-0.2-0.3c-0.6,0-1.5,2.1-2,3.6
		c-0.5,1.3-0.9,2.6-1.1,3.5c-0.1,0.7-0.2,0.7-0.6,0.7h-1.4l-0.3-0.3l0.9-8.4l-1.2-0.3l0.1-0.7l3.1-0.8l0.5,0.4L-205.5,538.2z"/>
	<path fill="#FFFFFF" d="M-190.6,535.3c-0.4,0-0.6,0.3-0.6,0.6c0,0.4,0.3,0.8,1.6,1.8c1.5,1.2,2,1.8,2,2.6c0,1.5-1.8,3.8-3.4,3.8
		c-0.9,0-3-0.8-3-1.5c0-0.4,0.4-1,1-1.7c1.1,0.8,1.9,1.2,2.6,1.2c0.4,0,0.8-0.2,0.8-0.7c0-0.4-0.3-0.9-1.4-1.8
		c-1-0.8-2.1-1.7-2.1-2.8c0-1.1,1.5-3.4,3.4-3.4c1.2,0,2.3,0.5,2.3,1c0,0.3-0.2,0.8-0.7,1.7C-189.2,535.7-190.1,535.3-190.6,535.3z"
		/>
	<path fill="#FFFFFF" d="M-180.4,539.9c-1.1,1.9-3,4.2-4.7,4.2c-1,0-1.4-0.7-1.4-2.5c0-2.4,1.1-8.2,3.3-8.2c0.8,0,2,0.2,2.6,0.5
		c0.4,0.1,0.6,0.3,0.6,0.6c0,0.4-0.2,1-0.5,1.6c-1-0.3-1.8-0.5-2.4-0.5c-0.9,0-1.2,1.5-1.2,3.6c0,1.9,0.2,2.5,0.7,2.5
		c0.4,0,1.1-0.8,2.1-2.4L-180.4,539.9z"/>
	<path fill="#FFFFFF" d="M-176.6,538.6h0.2c1-2.3,2.9-5.2,4.6-5.2c0.9,0,1.1,0.5,1.1,1.3c0,0.3,0,0.8,0,1.1l-0.6,5.8
		c0,0.5-0.1,0.7-0.1,0.8c0,0.2,0.1,0.3,0.6,0.4l0.8,0.1v0.8c-0.9,0-2.3,0.1-3.4,0.2l-0.5-0.5l0.7-6.4c0-0.3,0-0.5,0-0.7
		s0-0.3-0.2-0.3c-0.5,0-1.4,1.6-2,3c-0.6,1.5-1.2,3.2-1.4,4.3c-0.1,0.5-0.2,0.6-0.6,0.6h-1.6l-0.3-0.3l0.9-8.7
		c0.2-2.3,0.4-4.6,0.3-6.9l2.5-0.8l0.4,0.3L-176.6,538.6z"/>
	<path fill="#FFFFFF" d="M-155.2,539.9l-0.5,4c-0.8,0.2-1.9,0.3-2.8,0.3c-4.4,0-6.8-1.9-6.8-5.4c0-1.9,0.5-3.7,1.6-5.2
		c2.2-2.9,5.1-3.8,8.8-4.3l0.3,5.1l-1.1,0.2c-0.2-0.7-0.6-2.5-0.9-3.1c-0.1-0.2-0.3-0.3-0.5-0.3c-2.7,0-5.4,3-5.4,7.1
		c0,2.8,1.7,4.4,4.3,4.4c0.4,0,0.6-0.1,0.8-0.2c0.5-0.4,1-2.2,1.2-2.9L-155.2,539.9z"/>
	<path fill="#FFFFFF" d="M-147.7,538.9h-0.2c-1.4,2.7-3,5.2-4.6,5.2c-0.9,0-1.2-0.7-1.2-2c0-1.6,0.4-3.8,1.2-5.7
		c0.7-1.7,1.5-3,2.6-3c0.9,0,1.9,0.3,2.8,0.5c0.2-0.5,0.3-0.8,0.6-0.8s1,0.2,1.6,0.4l-0.9,8.1c0,0.5-0.1,0.7-0.1,0.8
		c0,0.2,0.1,0.3,0.6,0.4l0.8,0.1v0.8c-0.9,0-2.3,0.1-3.4,0.2l-0.5-0.5L-147.7,538.9z M-149.4,535.2c-0.6,0-1.1,0.4-1.5,1.9
		c-0.3,1.2-0.5,2.6-0.5,3.6c0,0.7,0,0.9,0.3,0.9c0.2,0,0.4-0.2,0.8-0.8c1-1.3,2-3.5,2.6-5.3C-148.1,535.3-148.7,535.2-149.4,535.2z"
		/>
	<path fill="#FFFFFF" d="M-137.3,535.2l-2.6-0.1l-0.5,4.8c0,0.4-0.1,0.9-0.1,1.3c0,1.5,1,1.5,2.5,1.5l0.1,0.6
		c-1.2,0.5-2.3,0.8-3,0.8c-1.3,0-2.1-0.9-2.1-2.4c0-0.4,0-0.8,0.1-1.1l0.6-5.6h-1.1l0.1-1.2h1.1l0.3-2.4c0.8,0,1.5-0.2,2.1-0.5
		l0.5,0.5c-0.2,0.7-0.3,1.5-0.4,2.2l2.6-0.2L-137.3,535.2z"/>
	<path fill="#FFFFFF" d="M-134.4,538.6h0.2c1-2.3,2.9-5.2,4.6-5.2c0.9,0,1.1,0.5,1.1,1.3c0,0.3,0,0.8,0,1.1l-0.6,5.8
		c0,0.5-0.1,0.7-0.1,0.8c0,0.2,0.1,0.3,0.6,0.4l0.8,0.1v0.8c-0.9,0-2.3,0.1-3.4,0.2l-0.5-0.5l0.7-6.4c0-0.3,0-0.5,0-0.7
		s0-0.3-0.2-0.3c-0.5,0-1.4,1.6-2,3c-0.6,1.5-1.2,3.2-1.4,4.3c-0.1,0.5-0.2,0.6-0.6,0.6h-1.5l-0.3-0.3l0.9-8.7
		c0.2-2.3,0.4-4.6,0.3-6.9l2.5-0.8l0.4,0.3L-134.4,538.6z"/>
	<path fill="#FFFFFF" d="M-121.4,541.7c-1.2,1.5-2.5,2.4-3.5,2.4c-1.1,0-1.9-1.3-1.9-3.5c0-2.2,0.8-4.8,1.8-6.3
		c0.4-0.6,0.9-0.8,1.7-0.8c0.8,0,2,0.2,2.9,0.5c1.3,0.4,1.5,0.8,1.5,1.9C-119,537.7-120,540.1-121.4,541.7z M-121.8,535.6
		c-0.4-0.2-1.2-0.3-1.6-0.3c-0.5,0-0.7,0.1-0.8,0.5c-0.2,0.6-0.4,1.6-0.4,2.8c0,1.4,0.3,3,0.8,3c0.3,0,0.6-0.2,1-0.9
		c0.7-1.1,1.3-2.8,1.3-4.2C-121.4,536-121.5,535.8-121.8,535.6z"/>
	<path fill="#FFFFFF" d="M-115.4,541c-0.1,0.8-0.1,1.2-0.1,1.4c0,0.2,0.1,0.3,0.5,0.4l0.6,0.1l-0.1,1c-0.8,0-1.7-0.1-2.4-0.1
		c-0.7,0-1.7,0-2.5,0.1l0.1-1l0.7-0.1c0.3,0,0.4-0.1,0.5-0.2s0.1-0.4,0.2-1.5l0.7-6.2c0.2-2.3,0.4-4.6,0.3-6.9l2.5-0.8l0.3,0.3
		L-115.4,541z"/>
	<path fill="#FFFFFF" d="M-109.3,533.8c-0.2,1-0.3,1.9-0.4,2.9l-0.4,4.4c-0.1,0.7-0.1,1.2-0.1,1.4c0,0.2,0.1,0.3,0.5,0.4l0.6,0.1
		l-0.1,1c-0.8,0-1.7-0.1-2.4-0.1c-0.7,0-1.7,0-2.5,0.1l0.1-1l0.7-0.1c0.2,0,0.3-0.1,0.5-0.2c0.1-0.1,0.1-0.4,0.2-1.5l0.6-5.9
		l-1.2-0.3l0.1-0.7l3.3-0.8L-109.3,533.8z M-108.7,528.5l-1.1,3.4l-1.3,0.4l-0.7-3.5l2.7-0.7L-108.7,528.5z"/>
	<path fill="#FFFFFF" d="M-104.1,533.8c-0.2,1-0.2,1.9-0.3,2.9l-0.2,2.8c-0.2,2.6-0.5,4.6-1.6,6.7c-1,1.7-2.8,3-3.8,3
		c-0.5,0-1.5-0.3-2.2-0.6l0.2-0.9c0.3,0,0.6,0,0.8,0c1.8,0,2.4-0.5,3-1.7c0.7-1.4,1-4,1.2-7l0.2-3.8l-1.2-0.3v-0.7l3.3-0.8
		L-104.1,533.8z M-103.7,528.5l-1,3.4l-1.3,0.4l-0.8-3.5l2.6-0.7L-103.7,528.5z"/>
	<path fill="#FFFFFF" d="M-99.9,537.6h0.2c1.4-2.4,3.1-4.1,4.4-4.1c0.8,0,1.3,0.5,1.3,1.6c0,1.8-0.8,4-2,6c0.7,0.8,1.5,2,2,2.9
		l-0.9,0.8c-1.3-1.3-2.9-2.6-4.3-3.6c0.2-0.5,0.7-1.3,1.1-1.6c0.2,0.1,0.3,0.2,0.4,0.2c0.7,0,1.2-1.9,1.2-3c0-0.5-0.1-0.7-0.3-0.7
		c-0.6,0-1.3,1-2,2.1c-0.9,1.4-1.4,3.1-1.7,5c-0.1,0.8-0.2,1-0.7,1h-1.3l-0.3-0.3l0.9-8.7c0.2-2.3,0.4-4.6,0.3-6.9l2.5-0.8l0.4,0.3
		L-99.9,537.6z"/>
	<path fill="#FFFFFF" d="M-84.2,544.2c-3.3,0-5-1.8-5-5.4c0-5.4,3.5-9.4,8.2-9.4c3.1,0,4.9,1.9,4.9,5.2
		C-76,539.9-79.6,544.2-84.2,544.2z M-81.8,531c-2.8,0-4.6,2.7-4.6,6.9c0,3.1,1,4.6,3,4.6c2.7,0,4.7-2.9,4.7-7.3
		C-78.8,532.4-79.8,531-81.8,531z"/>
	<path fill="#FFFFFF" d="M-68.9,538.8H-69c-1,2.3-2.9,5.3-4.6,5.3c-0.9,0-1.2-0.5-1.2-1.4c0-0.5,0.1-0.8,0.1-1.1l1-6.5l-1.2-0.3
		v-0.7l3.3-0.8l0.5,0.3l-1,6.7c0,0.3-0.1,0.5-0.1,0.7c0,0.3,0.1,0.3,0.2,0.3c0.4,0,1.1-1.2,1.6-2.4c0.9-1.7,1.6-3.9,1.9-5.1
		c0.1-0.4,0.2-0.5,0.5-0.5c0.4,0,1.2,0.2,1.9,0.4l-0.8,7.8c0,0.5-0.1,0.7-0.1,0.8c0,0.2,0.1,0.3,0.6,0.4l0.9,0.1v0.8
		c-0.9,0-2.3,0.1-3.4,0.2l-0.5-0.5L-68.9,538.8z"/>
	<path fill="#FFFFFF" d="M-59.4,543.6l0.7-4.6h-0.2c-1.4,2.7-3,5.2-4.6,5.2c-0.9,0-1.3-0.7-1.3-2c0-1.6,0.4-3.8,1.2-5.7
		c0.7-1.7,1.5-3,2.6-3c0.9,0,1.8,0.3,2.6,0.5v-0.5c0.2-1.8,0.3-3.7,0.2-5.6l2.5-0.8l0.4,0.3l-1.5,14.2c0,0.5-0.1,0.7-0.1,0.8
		c0,0.2,0.1,0.3,0.6,0.4l0.8,0.1v0.8c-0.9,0-2.3,0.1-3.4,0.2L-59.4,543.6z M-60.4,535.2c-0.6,0-1.1,0.4-1.5,1.9
		c-0.3,1.2-0.5,2.6-0.5,3.6c0,0.7,0,0.9,0.3,0.9c0.2,0,0.4-0.2,0.8-0.8c1-1.3,2-3.5,2.6-5.3C-59.1,535.3-59.8,535.2-60.4,535.2z"/>
	<path fill="#FFFFFF" d="M-47.7,540c-1.3,1.9-3.2,4.2-5.2,4.2c-1.1,0-1.6-0.8-1.6-2.5c0-2,0.9-8.2,3.4-8.2c1.5,0,4,0.6,4,1.8
		c0,1.4-3.1,3.2-5.1,4.2c0,0.4,0,0.8,0,1.3c0,0.6,0.2,1.1,0.7,1.1c0.7,0,1.4-0.5,2.9-2.3L-47.7,540z M-49.5,535.8
		c0-0.3-0.5-0.6-1.3-0.6c-1,0-1.3,1.6-1.4,2.8C-50.5,537.1-49.5,536.3-49.5,535.8z"/>
	<path fill="#FFFFFF" d="M-32.8,541.5c0.2,1,0.3,1.2,1,1.3l0.6,0.1l-0.1,1c-1.1-0.1-2-0.1-3-0.1s-2,0-3,0.1l0.1-1.1l1-0.1
		c0.8-0.1,1-0.2,1-0.6c0-0.2-0.1-0.5-0.2-0.9l-0.7-3.3c-2.1,0-3.1,0.1-3.5,0.3c-0.2,0.1-0.4,0.3-0.6,0.7l-0.8,2
		c-0.5,1.1-0.5,1.3-0.5,1.5c0,0.2,0.2,0.3,0.8,0.3l1.6,0.2l-0.1,1.1c-1.1-0.1-2-0.1-3-0.1s-1.9,0-2.9,0.1l0.1-1l1.4-0.2
		c0.9-1.9,1.9-3.9,2.8-5.8c1.2-2.4,2.4-5,3.1-7.3h2.4L-32.8,541.5z M-37.1,532.5l-1.8,4l2.7,0.1L-37.1,532.5z"/>
	<path fill="#FFFFFF" d="M-26.9,537.4h0.2c0.5-1.2,1.3-2.8,1.8-3.5c0.3-0.3,0.5-0.5,0.8-0.5c0.4,0,1.1,0.2,1.5,0.3
		c0.2,0.1,0.4,0.2,0.4,0.4c0,0.4-0.3,1.1-0.6,1.8c-0.3-0.2-0.7-0.3-1.1-0.3c-0.6,0-1.2,0.4-1.8,1.6c-0.8,1.5-1.5,3.6-1.5,4.9
		c0,0.3,0.1,0.3,0.6,0.4l1.5,0.2l-0.1,1c-0.9-0.1-2-0.1-2.9-0.1c-1,0-1.9,0-2.9,0.1l0.1-1l0.6-0.1c0.5-0.1,0.6-0.2,0.6-0.7l0.7-6.9
		l-1.2-0.3V534l3.3-0.8l0.5,0.4L-26.9,537.4z"/>
	<path fill="#FFFFFF" d="M-18.9,538.2h0.2c1-2.1,2.6-4.8,4.2-4.8c0.7,0,1,0.4,1,1.1c0,0.3,0,0.8-0.1,1.2l-0.4,2.5h0.2
		c1.6-3.3,3-4.8,4.2-4.8c0.7,0,1,0.4,1,1.2c0,0.4,0,0.9-0.1,1.3l-0.6,5.8c-0.1,0.5-0.1,0.7-0.1,0.8c0,0.2,0.1,0.3,0.6,0.4L-8,543
		v0.8c-0.9,0-2.3,0.1-3.3,0.2l-0.5-0.5l0.7-6.4c0-0.2,0-0.5,0-0.7c0-0.2,0-0.3-0.2-0.3c-0.6,0-1.6,2.3-2.1,3.6
		c-0.5,1.2-0.9,2.6-1.1,3.6c-0.1,0.6-0.1,0.6-0.6,0.6h-1.3l-0.3-0.3l0.7-6.4c0-0.3,0-0.5,0-0.7s0-0.3-0.2-0.3c-0.6,0-1.5,2.1-2,3.6
		c-0.5,1.3-0.9,2.6-1.1,3.5c-0.1,0.7-0.2,0.7-0.6,0.7h-1.4l-0.3-0.3l0.9-8.4l-1.3-0.4l0.1-0.7l3.1-0.8l0.5,0.4L-18.9,538.2z"/>
	<path fill="#FFFFFF" d="M-0.1,540c-1.3,1.9-3.2,4.2-5.2,4.2c-1.1,0-1.6-0.8-1.6-2.5c0-2,0.9-8.2,3.4-8.2c1.5,0,4,0.6,4,1.8
		c0,1.4-3.1,3.2-5.1,4.2c0,0.4,0,0.8,0,1.3c0,0.6,0.2,1.1,0.7,1.1c0.7,0,1.4-0.5,2.9-2.3L-0.1,540z M-2,535.8c0-0.3-0.5-0.6-1.3-0.6
		c-1,0-1.3,1.6-1.4,2.8C-3,537.1-2,536.3-2,535.8z"/>
	<path fill="#FFFFFF" d="M4,538.6h0.2c1-2.3,2.9-5.2,4.6-5.2c0.9,0,1.1,0.5,1.1,1.3c0,0.3,0,0.8,0,1.1l-0.6,5.8
		c0,0.5-0.1,0.7-0.1,0.8c0,0.2,0.1,0.3,0.6,0.4l0.8,0.1v0.8c-0.9,0-2.3,0.1-3.4,0.2l-0.5-0.5l0.7-6.4c0-0.3,0-0.5,0-0.7
		s0-0.3-0.2-0.3c-0.5,0-1.4,1.6-2,3c-0.6,1.5-1.2,3.2-1.4,4.3c-0.1,0.5-0.2,0.6-0.6,0.6H1.7l-0.3-0.3l0.9-8.4l-1.2-0.3v-0.7l3.3-0.8
		l0.4,0.3L4,538.6z"/>
	<path fill="#FFFFFF" d="M23.2,532.6c0.7-0.6,1.3-1.2,1.9-1.8l-1.1-0.2l0.1-1.1c0.8,0.1,1.5,0.1,2.2,0.1c0.9,0,1.7,0,2.6-0.1
		l-0.1,1.1l-0.6,0.1c-0.9,0.2-1.3,0.5-2.9,1.9l-2.6,2.4l4.9,8.9v0.3l-1.5,0.2c-0.8-1.3-1.7-2.6-2.6-3.8c-0.8-1.2-1.8-2.5-2.4-3.2
		c-0.2-0.3-0.5-0.7-0.8-0.7c-0.2,0-0.4,0.2-0.5,0.3l-0.4,3.8c-0.1,0.7-0.1,1.2-0.1,1.4s0,0.2,0.5,0.3l1.1,0.1l-0.1,1.1
		c-1-0.1-2.1-0.1-3-0.1c-1,0-2,0-3,0.1l0.1-1.1l1.1-0.1c0.3,0,0.4-0.1,0.5-0.2c0.1-0.1,0.1-0.3,0.3-1.6l0.9-8.5
		c0.1-0.7,0.1-1.2,0.1-1.4s-0.1-0.3-0.5-0.3l-1.1-0.1l0.1-1.1c1.1,0.1,2,0.1,3,0.1s2,0,3-0.1l-0.1,1.1l-1.2,0.1
		c-0.3,0-0.4,0.1-0.5,0.2c-0.1,0.1-0.2,0.5-0.3,1.6l-0.3,3.1L23.2,532.6z"/>
	<path fill="#FFFFFF" d="M34.1,538.9h-0.2c-1.4,2.7-3,5.2-4.6,5.2c-0.9,0-1.3-0.7-1.3-2c0-1.6,0.4-3.8,1.2-5.7c0.7-1.7,1.5-3,2.6-3
		c0.9,0,1.9,0.3,2.8,0.5c0.2-0.5,0.3-0.8,0.6-0.8c0.3,0,1,0.2,1.6,0.4l-0.9,8.1c0,0.5-0.1,0.7-0.1,0.8c0,0.2,0.1,0.3,0.6,0.4
		l0.8,0.1v0.8c-0.9,0-2.3,0.1-3.4,0.2l-0.5-0.5L34.1,538.9z M32.5,535.2c-0.6,0-1.1,0.4-1.5,1.9c-0.3,1.2-0.5,2.6-0.5,3.6
		c0,0.7,0,0.9,0.3,0.9c0.2,0,0.4-0.2,0.8-0.8c1-1.3,2-3.5,2.6-5.3C33.8,535.3,33.1,535.2,32.5,535.2z"/>
	<path fill="#FFFFFF" d="M41.5,538.6h0.2c1-2.3,2.9-5.2,4.6-5.2c0.9,0,1.1,0.5,1.1,1.3c0,0.3,0,0.8,0,1.1l-0.6,5.8
		c0,0.5-0.1,0.7-0.1,0.8c0,0.2,0.1,0.3,0.6,0.4l0.8,0.1v0.8c-0.9,0-2.3,0.1-3.4,0.2l-0.5-0.5l0.7-6.4c0-0.3,0-0.5,0-0.7
		s0-0.3-0.2-0.3c-0.5,0-1.4,1.6-2,3c-0.6,1.5-1.2,3.2-1.4,4.3c-0.1,0.5-0.2,0.6-0.6,0.6h-1.5l-0.3-0.3l0.9-8.4l-1.2-0.3v-0.7
		l3.3-0.8l0.4,0.3L41.5,538.6z"/>
	<path fill="#FFFFFF" d="M55.3,535.2l-2.6-0.1l-0.5,4.8c0,0.4-0.1,0.9-0.1,1.3c0,1.5,1,1.5,2.5,1.5l0.1,0.6c-1.2,0.5-2.3,0.8-3,0.8
		c-1.3,0-2.1-0.9-2.1-2.4c0-0.4,0-0.8,0.1-1.1l0.6-5.6h-1.1l0.1-1.2h1.1l0.3-2.4c0.8,0,1.5-0.2,2.1-0.5l0.5,0.5
		c-0.2,0.7-0.3,1.5-0.4,2.2l2.6-0.2L55.3,535.2z"/>
	<path fill="#FFFFFF" d="M60.7,541.7c-1.2,1.5-2.5,2.4-3.5,2.4c-1.1,0-1.9-1.3-1.9-3.5c0-2.2,0.8-4.8,1.8-6.3
		c0.4-0.6,0.9-0.8,1.7-0.8c0.8,0,2,0.2,2.9,0.5c1.2,0.4,1.5,0.8,1.5,1.9C63.1,537.7,62,540.1,60.7,541.7z M60.2,535.6
		c-0.4-0.2-1.2-0.3-1.6-0.3c-0.5,0-0.7,0.1-0.8,0.5c-0.2,0.6-0.4,1.6-0.4,2.8c0,1.4,0.3,3,0.8,3c0.3,0,0.6-0.2,1-0.9
		c0.7-1.1,1.3-2.8,1.3-4.2C60.7,536,60.6,535.8,60.2,535.6z"/>
	<path fill="#FFFFFF" d="M69.3,541.7c-1.2,1.5-2.5,2.4-3.5,2.4c-1.1,0-1.9-1.3-1.9-3.5c0-2.2,0.8-4.8,1.8-6.3
		c0.4-0.6,0.9-0.8,1.7-0.8c0.8,0,2,0.2,2.9,0.5c1.3,0.4,1.5,0.8,1.5,1.9C71.7,537.7,70.6,540.1,69.3,541.7z M68.9,535.6
		c-0.4-0.2-1.2-0.3-1.6-0.3c-0.5,0-0.7,0.1-0.8,0.5c-0.2,0.6-0.4,1.6-0.4,2.8c0,1.4,0.3,3,0.8,3c0.3,0,0.6-0.2,1-0.9
		c0.7-1.1,1.3-2.8,1.3-4.2C69.3,536,69.2,535.8,68.9,535.6z"/>
	<path fill="#FFFFFF" d="M75.8,537.4H76c0.5-1.2,1.3-2.8,1.8-3.5c0.3-0.3,0.5-0.5,0.8-0.5c0.4,0,1.1,0.2,1.5,0.3
		c0.2,0.1,0.4,0.2,0.4,0.4c0,0.4-0.2,1.1-0.6,1.8c-0.3-0.2-0.7-0.3-1.1-0.3c-0.6,0-1.2,0.4-1.8,1.6c-0.8,1.5-1.5,3.6-1.5,4.9
		c0,0.3,0.1,0.3,0.6,0.4l1.5,0.2l-0.1,1c-0.9-0.1-2-0.1-2.9-0.1c-1,0-1.9,0-2.9,0.1l0.1-1l0.6-0.1c0.5-0.1,0.6-0.2,0.6-0.7l0.7-6.9
		l-1.2-0.3V534l3.3-0.8l0.5,0.4L75.8,537.4z"/>
</g>
</svg>
